<?xml version="1.0" standalone="no"?><!DOCTYPE svg PUBLIC "-//W3C//DTD SVG 1.1//EN" "http://www.w3.org/Graphics/SVG/1.1/DTD/svg11.dtd"><svg t="1693512492347" class="icon" viewBox="0 0 1024 1024" version="1.1" xmlns="http://www.w3.org/2000/svg" p-id="9415" xmlns:xlink="http://www.w3.org/1999/xlink" width="200" height="200"><path d="M656 288h144a16 16 0 0 1 16 16v16a16 16 0 0 1-16 16h-48v496a16 16 0 0 1-16 16H288a16 16 0 0 1-16-16V336h-48a16 16 0 0 1-16-16v-16a16 16 0 0 1 16-16h144v-80a16 16 0 0 1 16-16h256a16 16 0 0 1 16 16v80z m-48 0v-48H416v48h192z m32 48H320v464h384V336h-64z m-208 112h16a16 16 0 0 1 16 16v192a16 16 0 0 1-16 16h-16a16 16 0 0 1-16-16V464a16 16 0 0 1 16-16z m144 0h16a16 16 0 0 1 16 16v192a16 16 0 0 1-16 16h-16a16 16 0 0 1-16-16V464a16 16 0 0 1 16-16z" fill="#000000" p-id="9416"></path></svg>