<?xml version="1.0" standalone="no"?><!DOCTYPE svg PUBLIC "-//W3C//DTD SVG 1.1//EN" "http://www.w3.org/Graphics/SVG/1.1/DTD/svg11.dtd"><svg class="icon" width="200px" height="200.00px" viewBox="0 0 1024 1024" version="1.1" xmlns="http://www.w3.org/2000/svg"><path d="M332.796922 686.083126m-332.796922 0a332.796922 332.796922 0 1 0 665.593843 0 332.796922 332.796922 0 1 0-665.593843 0Z" fill="#D3EFDE" /><path d="M883.19183 1024h-639.99408A141.054695 141.054695 0 0 1 102.399053 883.201302v-742.393132A141.054695 141.054695 0 0 1 243.19775 0.009472h516.347224a88.319183 88.319183 0 0 1 63.487413 25.599763l189.694245 189.694245A38.399645 38.399645 0 0 1 1023.990528 243.207222v639.99408a141.054695 141.054695 0 0 1-140.798698 140.798698zM243.19775 76.808762A63.999408 63.999408 0 0 0 179.198342 140.80817v742.393132A63.999408 63.999408 0 0 0 243.19775 947.20071h639.99408a63.999408 63.999408 0 0 0 63.999408-63.999408V259.079076l-179.198342-179.198343a13.055879 13.055879 0 0 0-8.447922-3.071971z" fill="#434260" /><path d="M296.18926 549.38039c0 30.463718-10.495903 41.727614-31.231711 41.727614A37.119657 37.119657 0 0 1 230.397869 568.580213l-22.783789 16.383848a63.231415 63.231415 0 0 0 59.903445 34.55968c42.239609 0 60.159444-29.951723 60.159444-67.071379V409.605683h-31.487709zM472.059633 503.044819l-28.415737-12.031889C426.748053 484.356992 409.596211 477.445056 409.596211 460.80521s13.823872-25.599763 35.071676-25.599764a66.559384 66.559384 0 0 1 45.567578 18.687827l17.151842-20.735808a88.831178 88.831178 0 0 0-62.71942-25.599763A61.951427 61.951427 0 0 0 376.828514 460.80521a59.647448 59.647448 0 0 0 42.23961 54.271498l28.927732 12.287886c18.943825 8.447922 33.023695 14.335867 33.023695 33.279692s-14.07987 29.439728-39.167638 29.439728a80.383256 80.383256 0 0 1-55.039491-25.599763l-19.199822 22.527791a102.399053 102.399053 0 0 0 73.727318 30.463718c45.311581 0 72.959325-27.135749 72.959325-60.415441a57.855465 57.855465 0 0 0-42.23961-54.0155zM632.314151 404.485731c-53.247507 0-90.111166 39.935631-90.111166 106.751012s36.863659 108.286998 90.111166 108.286998 90.367164-41.471616 90.367164-108.286998-37.119657-106.751013-90.367164-106.751012z m0 186.622273c-34.303683 0-56.575477-31.487709-56.575477-79.871261s22.271794-78.335275 56.575477-78.335275 56.831474 29.695725 56.831474 78.335275-23.551782 79.871261-56.831474 79.871261zM886.775797 409.605683v96.767105c0 22.527792 2.559976 47.61556 4.35196 69.119361h-1.535986l-21.503801-44.031593L799.224607 409.605683h-33.53569v207.358082h30.975714v-98.815086c0-22.527792-2.303979-46.591569-4.095962-67.839372H793.592659l21.759799 43.263599 68.863363 122.110871h33.279692V409.605683z" fill="#434260" /></svg>